<?xml version="1.0" encoding="utf-8"?>
<!-- Generator: Adobe Illustrator 23.0.0, SVG Export Plug-In . SVG Version: 6.00 Build 0)  -->
<svg version="1.1" id="Layer_1" xmlns="http://www.w3.org/2000/svg" xmlns:xlink="http://www.w3.org/1999/xlink" x="0px" y="0px"
	 viewBox="0 0 630 350" style="enable-background:new 0 0 630 350;" xml:space="preserve">
<style type="text/css">
	.st0{clip-path:url(#SVGID_2_);fill:#FFFFFF;}
	.st1{clip-path:url(#SVGID_2_);fill:#1EBDC6;}
	.st2{clip-path:url(#SVGID_2_);}
	.st3{fill-rule:evenodd;clip-rule:evenodd;fill:#1EBDC6;}
	.st4{clip-path:url(#SVGID_2_);fill:#252323;}
</style>
<title>logo</title>
<g>
	<defs>
		<rect id="SVGID_1_" x="0" width="630" height="350"/>
	</defs>
	<clipPath id="SVGID_2_">
		<use xlink:href="#SVGID_1_"  style="overflow:visible;"/>
	</clipPath>
	<rect x="0" class="st0" width="630" height="350"/>
	<rect x="0" y="301" class="st1" width="630" height="49"/>
	<g id="Individual" class="st2">
		<polygon class="st3" points="204.5,132.4 138.4,90.5 72.2,132.4 72.2,209.5 138.4,251.4 204.5,209.5 		"/>
	</g>
	<path class="st4" d="M220.5,153.8v-51.6h22.9c2.3,0,4.5,0.5,6.6,1.5c2,1,3.7,2.3,5.2,3.9c1.5,1.6,2.6,3.5,3.4,5.5
		c0.8,2,1.2,4.1,1.2,6.2c0,3.2-0.8,6.4-2.5,9.1c-1.6,2.7-4,4.7-6.8,5.9l11.8,19.4H251l-10.6-17.3h-9.9v17.3L220.5,153.8z
		 M230.5,127.7h12.6c0.9,0,1.8-0.2,2.6-0.7c0.8-0.4,1.5-1,2.1-1.8c0.6-0.8,1.1-1.7,1.4-2.7c0.3-1.1,0.5-2.2,0.5-3.3
		c0-1.1-0.2-2.3-0.6-3.3c-0.4-1-0.9-1.9-1.6-2.7c-0.6-0.7-1.4-1.3-2.3-1.7c-0.8-0.4-1.7-0.6-2.6-0.6h-12.2V127.7z"/>
	<path class="st4" d="M291,154.2c-3.6,0.1-7.1-0.7-10.3-2.2c-3-1.4-5.7-3.4-7.9-5.9c-4.4-5-6.9-11.4-7-18.1c0-3.4,0.6-6.7,1.9-9.9
		c1.2-3.1,3-5.9,5.3-8.4c2.3-2.4,5-4.4,8.1-5.8c3.2-1.4,6.6-2.2,10.1-2.1c3.5,0,7,0.7,10.2,2.3c3,1.5,5.7,3.5,7.9,6
		c2.2,2.5,3.9,5.3,5.1,8.4c1.2,3.1,1.8,6.3,1.8,9.6c0,3.4-0.6,6.7-1.9,9.8c-1.2,3.1-3,5.9-5.2,8.3c-2.3,2.4-5,4.4-8,5.7
		C298,153.5,294.5,154.2,291,154.2z M276,128c0,2.2,0.3,4.4,1,6.5c0.6,2,1.6,3.9,3,5.5c1.3,1.6,2.9,2.9,4.7,3.9
		c4.1,1.9,8.8,1.9,12.8,0c1.8-1,3.5-2.3,4.7-4c1.3-1.7,2.3-3.5,2.9-5.6c0.7-2,1-4.2,1-6.3c0-2.2-0.4-4.4-1.1-6.5
		c-0.7-2-1.7-3.9-3-5.5c-1.3-1.6-2.9-2.9-4.7-3.8c-4.1-1.9-8.8-1.9-12.8,0.1c-1.8,1-3.5,2.3-4.7,3.9c-1.3,1.7-2.3,3.5-2.9,5.5
		C276.3,123.8,276,125.9,276,128z"/>
	<path class="st4" d="M366.2,153.8v-34.1l-13.3,25.4h-5.5l-13.3-25.4v34.1H324v-51.6h10.8l15.3,29.4l15.4-29.4h10.7v51.6H366.2z"/>
	<path class="st4" d="M422.9,145v8.8H387v-51.6h35.3v8.8h-25.2v12.4h21.8v8.1h-21.8V145L422.9,145z M394.1,94.7l7.7-7.3h7.1l7.7,7.3
		l-5,2.3l-6.2-4.6l-6.2,4.6L394.1,94.7z"/>
	<path class="st4" d="M440.9,120.7v33.1h-10.1v-51.6h7.8l27,33.9v-33.8h10.1v51.5h-8.2L440.9,120.7z"/>
	<path class="st4" d="M486.4,153.8v-51.6h10.1v51.6H486.4z"/>
	<path class="st4" d="M521.9,102.2h8.9l19.7,51.6h-10.3l-4.8-12.9h-18.1l-4.7,12.9h-10.3L521.9,102.2z M533.5,133.9l-7.1-20.3
		l-7.4,20.3L533.5,133.9z"/>
	<path class="st4" d="M267.2,217.4v-44.6l-20.4,34.8h-2.3l-20.4-34.8v44.6h-3.7v-51.6h3.7l21.6,36.9l21.6-36.9h3.7v51.6L267.2,217.4
		z"/>
	<path class="st4" d="M298.1,165.8h3.2l21.9,51.6h-3.9l-7.2-17h-24.7l-7.2,17h-4L298.1,165.8z M311,197.4l-11.3-27l-11.5,27H311z"/>
	<path class="st4" d="M328.5,217.4v-51.6H350c2.1,0,4.2,0.5,6,1.4c1.8,0.9,3.4,2.1,4.8,3.7c1.3,1.5,2.4,3.3,3.1,5.2
		c0.7,1.8,1.1,3.8,1.1,5.8c0,1.9-0.3,3.7-0.9,5.5c-0.6,1.7-1.4,3.3-2.5,4.8c-1.1,1.4-2.4,2.6-3.9,3.5c-1.5,0.9-3.2,1.5-5,1.8
		l12.9,20.1h-4.3L349,198h-16.8v19.5H328.5z M332.2,194.5h18.1c1.6,0,3.1-0.4,4.5-1.1c1.3-0.7,2.5-1.7,3.5-2.9
		c1-1.2,1.7-2.6,2.2-4.1c0.5-1.5,0.8-3.1,0.8-4.7c0-1.6-0.3-3.2-0.9-4.8c-0.6-1.5-1.4-2.8-2.5-4c-1-1.2-2.3-2.1-3.6-2.8
		c-1.4-0.7-2.9-1.1-4.5-1.1h-17.6L332.2,194.5z"/>
	<path class="st4" d="M408.4,212.6c-2,1.6-4.3,2.9-6.7,3.9c-2.5,0.9-5.2,1.4-7.8,1.4c-3.4,0-6.8-0.7-9.8-2.3
		c-2.9-1.5-5.5-3.5-7.6-5.9c-2.2-2.5-3.8-5.3-5-8.4c-1.2-3.1-1.7-6.4-1.7-9.7c0-3.4,0.6-6.7,1.9-9.9c1.2-3.1,2.9-5.9,5.1-8.4
		c2.2-2.4,4.8-4.4,7.7-5.8c3-1.4,6.3-2.2,9.6-2.1c3.4,0,6.8,0.7,9.9,2.3c2.9,1.5,5.5,3.5,7.6,6c2.1,2.5,3.8,5.3,4.9,8.4
		c2.4,6.4,2.3,13.5-0.3,19.8c-1.3,3.2-3.2,6.1-5.5,8.6l5.8,6.9h-3.9L408.4,212.6z M393.9,214.4c2.3,0,4.6-0.4,6.7-1.2
		c2-0.8,3.9-1.9,5.5-3.3l-6.1-7.4h3.9l4.4,5.3c1.9-2.2,3.5-4.7,4.5-7.5c1-2.8,1.6-5.7,1.6-8.6c0-2.9-0.5-5.8-1.5-8.5
		c-1-2.7-2.4-5.1-4.3-7.3c-1.8-2.1-4-3.8-6.4-5c-2.5-1.3-5.3-1.9-8.2-1.9c-2.9,0-5.8,0.6-8.5,2c-2.5,1.3-4.7,3-6.5,5.2
		c-1.8,2.2-3.2,4.6-4.2,7.3c-1,2.7-1.5,5.5-1.5,8.3c0,2.9,0.5,5.8,1.5,8.5c1,2.7,2.4,5.1,4.2,7.3c1.8,2.1,4,3.8,6.5,5
		C388.2,213.8,391,214.4,393.9,214.4L393.9,214.4z"/>
	<path class="st4" d="M446.2,214.4c3,0.1,6-0.6,8.7-2c2.2-1.2,4.1-3,5.5-5.2c1.4-2.2,2.3-4.7,2.8-7.3c0.6-2.7,0.8-5.5,0.8-8.2v-25.9
		h3.7v25.9c0,3.3-0.4,6.6-1.1,9.9c-0.7,3-1.9,5.8-3.7,8.3c-1.7,2.4-4,4.4-6.6,5.7c-6.5,2.8-13.9,2.8-20.4-0.1
		c-2.7-1.4-5-3.4-6.7-5.9c-1.7-2.5-2.9-5.3-3.6-8.3c-0.7-3.1-1.1-6.4-1.1-9.6v-25.9h3.7v25.9c0,2.8,0.3,5.6,0.8,8.4
		c0.5,2.6,1.5,5,2.9,7.2c1.4,2.1,3.3,3.9,5.5,5.1C440.3,213.8,443.2,214.5,446.2,214.4z"/>
	<path class="st4" d="M512.4,214.1v3.3H478v-51.6h33.8v3.3h-30.1v20.3H508v3.2h-26.3v21.4L512.4,214.1z"/>
	<path class="st4" d="M549,174.4c-3.7-3.9-8.9-5.9-14.2-5.6c-3.9-0.3-7.8,0.7-11,2.9c-2.3,1.9-3.6,4.8-3.5,7.7
		c-0.1,1.4,0.3,2.8,0.9,4.1c0.6,1.2,1.6,2.1,2.7,2.8c1.5,0.9,3,1.5,4.7,2c1.9,0.5,4.2,1.1,6.8,1.7c2.8,0.6,5.3,1.2,7.5,1.9
		c2,0.6,4,1.5,5.8,2.7c1.5,1,2.8,2.3,3.6,3.9c0.9,1.8,1.3,3.8,1.3,5.7c0,2.1-0.4,4.1-1.3,6c-0.9,1.7-2.2,3.2-3.8,4.3
		c-1.8,1.2-3.7,2.1-5.8,2.6c-2.5,0.6-5,0.9-7.5,0.9c-7.6,0.2-14.9-2.6-20.5-7.7l2-3c2.3,2.3,5,4.2,8,5.4c3.4,1.4,7,2.1,10.6,2
		c3.7,0.2,7.4-0.7,10.6-2.5c2.5-1.6,4-4.5,3.8-7.5c0-1.5-0.3-3-1-4.3c-0.7-1.3-1.8-2.3-3-3.1c-1.6-1-3.3-1.7-5.1-2.3
		c-2-0.6-4.4-1.2-7.1-1.8c-2.8-0.6-5.2-1.2-7.3-1.9c-1.9-0.5-3.7-1.4-5.3-2.5c-1.4-0.9-2.5-2.1-3.2-3.6c-0.8-1.7-1.2-3.5-1.1-5.3
		c0-2.1,0.4-4.3,1.3-6.2c0.9-1.8,2.2-3.3,3.8-4.5c1.7-1.3,3.7-2.2,5.8-2.8c2.4-0.7,4.9-1,7.4-0.9c3.1-0.1,6.1,0.5,9,1.5
		c2.7,1,5.1,2.6,7.1,4.5L549,174.4z"/>
	<path class="st1" d="M220.3,238.3c0-1.3,0.2-2.6,0.7-3.8c0.4-1.2,1.1-2.4,2-3.4c0.9-1,2-1.8,3.2-2.4c1.3-0.6,2.8-0.9,4.3-0.9
		c1.7,0,3.4,0.4,4.9,1.3c1.3,0.8,2.4,1.9,3.1,3.3l-2.6,1.7c-0.3-0.6-0.6-1.1-1.1-1.6c-0.4-0.4-0.9-0.8-1.4-1c-0.5-0.3-1-0.4-1.5-0.5
		c-0.5-0.1-1-0.2-1.5-0.2c-1,0-2,0.2-2.9,0.7c-0.8,0.4-1.5,1-2.1,1.8c-0.6,0.7-1,1.6-1.3,2.5c-0.3,0.9-0.4,1.8-0.4,2.7
		c0,1,0.2,2,0.5,2.9c0.3,0.9,0.8,1.7,1.4,2.5c0.6,0.7,1.3,1.3,2.2,1.7c0.8,0.4,1.8,0.6,2.7,0.6c0.5,0,1.1-0.1,1.6-0.2
		c0.6-0.1,1.1-0.3,1.6-0.6c0.5-0.3,1-0.7,1.4-1.1c0.4-0.5,0.8-1,1.1-1.6l2.8,1.6c-0.3,0.8-0.8,1.5-1.4,2.1c-0.6,0.6-1.3,1.1-2.1,1.5
		c-0.8,0.4-1.6,0.7-2.5,1c-0.8,0.2-1.7,0.3-2.5,0.3c-1.4,0-2.8-0.3-4.1-0.9c-1.2-0.6-2.3-1.5-3.2-2.5c-0.9-1-1.6-2.2-2.1-3.5
		C220.6,241,220.3,239.6,220.3,238.3z"/>
	<path class="st1" d="M242,248.9v-21h9.2c0.9,0,1.8,0.2,2.6,0.6c0.8,0.4,1.5,0.9,2.1,1.6c0.6,0.6,1,1.4,1.4,2.2
		c0.3,0.8,0.5,1.6,0.5,2.5c0,0.7-0.1,1.4-0.3,2c-0.2,0.6-0.5,1.2-0.8,1.8c-0.4,0.5-0.8,1-1.3,1.4c-0.5,0.4-1.1,0.7-1.7,0.9l5,8h-3.8
		l-4.6-7.3h-4.9v7.3L242,248.9z M245.3,238.7h5.8c0.5,0,0.9-0.1,1.3-0.3c0.4-0.2,0.7-0.5,1-0.9c0.3-0.4,0.5-0.8,0.7-1.3
		c0.2-0.5,0.2-1,0.2-1.5c0-0.5-0.1-1-0.3-1.5c-0.2-0.5-0.4-0.9-0.7-1.2c-0.3-0.3-0.7-0.6-1.1-0.8c-0.4-0.2-0.8-0.3-1.3-0.3h-5.6
		V238.7z"/>
	<path class="st1" d="M260.3,238.3c0-1.3,0.2-2.6,0.7-3.8c0.4-1.2,1.1-2.4,2-3.4c0.9-1,2-1.8,3.2-2.4c1.3-0.6,2.8-0.9,4.3-0.9
		c1.7,0,3.4,0.4,4.9,1.3c1.3,0.8,2.4,1.9,3.1,3.3l-2.6,1.7c-0.3-0.6-0.6-1.1-1.1-1.6c-0.4-0.4-0.9-0.8-1.4-1c-0.5-0.3-1-0.4-1.5-0.5
		c-0.5-0.1-1-0.2-1.5-0.2c-1,0-2,0.2-2.9,0.7c-0.8,0.4-1.5,1-2.1,1.8c-0.6,0.7-1,1.6-1.3,2.5c-0.3,0.9-0.4,1.8-0.4,2.7
		c0,1,0.2,2,0.5,2.9c0.3,0.9,0.8,1.7,1.4,2.5c0.6,0.7,1.3,1.3,2.2,1.7c0.8,0.4,1.8,0.6,2.7,0.6c0.5,0,1.1-0.1,1.6-0.2
		c0.6-0.1,1.1-0.3,1.6-0.6c0.5-0.3,1-0.7,1.4-1.1c0.4-0.5,0.8-1,1.1-1.6l2.8,1.6c-0.3,0.8-0.8,1.5-1.4,2.1c-0.6,0.6-1.3,1.1-2.1,1.5
		c-0.8,0.4-1.6,0.7-2.5,1c-0.8,0.2-1.7,0.3-2.5,0.3c-1.4,0-2.8-0.3-4.1-0.9c-1.2-0.6-2.3-1.5-3.2-2.5c-0.9-1-1.6-2.2-2.1-3.5
		C260.5,241,260.3,239.6,260.3,238.3z"/>
	<path class="st1" d="M281.4,242.3v-2.9h8.9v2.9H281.4z"/>
	<path class="st1" d="M294.4,248.9v-21h7.5c1.5,0,3.1,0.2,4.5,0.8c1.2,0.5,2.3,1.3,3.2,2.2c0.9,1,1.5,2.1,1.9,3.3
		c0.4,1.3,0.7,2.7,0.7,4.1c0,1.5-0.2,3-0.7,4.3c-0.5,1.2-1.2,2.4-2.1,3.3c-0.9,0.9-2,1.7-3.2,2.1c-1.4,0.5-2.8,0.8-4.2,0.8
		L294.4,248.9z M308.8,238.4c0-1-0.1-2.1-0.5-3.1c-0.3-0.9-0.7-1.7-1.4-2.4c-0.6-0.7-1.3-1.2-2.2-1.6c-0.9-0.4-1.9-0.6-2.9-0.6h-4.2
		V246h4.2c1,0,2-0.2,3-0.6c0.8-0.4,1.6-0.9,2.2-1.6c0.6-0.7,1-1.5,1.3-2.4C308.7,240.4,308.8,239.4,308.8,238.4z"/>
	<path class="st1" d="M315.7,248.9v-21h14.1v2.9H319v6.3h9v2.8h-9v9.1L315.7,248.9z"/>
	<path class="st1" d="M353.9,240.3c0,1.2-0.2,2.4-0.6,3.6c-0.4,1-0.9,2-1.6,2.8c-0.7,0.8-1.5,1.4-2.4,1.9c-0.9,0.4-2,0.7-3,0.7
		c-1,0-2.1-0.2-3-0.7c-0.9-0.4-1.7-1.1-2.4-1.9c-0.7-0.8-1.2-1.8-1.6-2.8c-0.8-2.3-0.8-4.9,0-7.2c0.4-1,0.9-2,1.6-2.8
		c0.7-0.8,1.5-1.4,2.4-1.9c0.9-0.5,2-0.7,3-0.7c1,0,2.1,0.2,3,0.7c0.9,0.5,1.7,1.1,2.4,1.9c0.7,0.8,1.2,1.8,1.6,2.8
		C353.8,237.8,354,239,353.9,240.3z M350.6,240.3c0-0.8-0.1-1.6-0.3-2.4c-0.2-0.7-0.5-1.3-0.9-1.9c-0.4-0.5-0.8-0.9-1.4-1.2
		c-0.5-0.3-1.1-0.4-1.7-0.4c-0.6,0-1.2,0.1-1.8,0.4c-0.5,0.3-1,0.7-1.4,1.2c-0.4,0.6-0.7,1.2-0.9,1.9c-0.4,1.6-0.4,3.3,0,4.9
		c0.2,0.7,0.5,1.3,0.9,1.9c0.4,0.5,0.8,0.9,1.4,1.2c0.5,0.3,1.2,0.4,1.8,0.4c0.6,0,1.2-0.1,1.7-0.4c0.5-0.3,1-0.7,1.4-1.2
		c0.4-0.6,0.7-1.2,0.9-1.9C350.5,241.9,350.6,241.1,350.6,240.3z"/>
	<path class="st1" d="M368.7,246v2.9h-11.3V246h4.2v-10.3c-0.2,0.3-0.5,0.5-0.8,0.7c-0.4,0.3-0.8,0.5-1.2,0.7
		c-0.5,0.2-0.9,0.4-1.4,0.5c-0.4,0.1-0.9,0.2-1.3,0.2v-3.1c0.5,0,1-0.1,1.4-0.4c0.5-0.2,1-0.5,1.5-0.8c0.4-0.3,0.9-0.6,1.3-0.9
		c0.3-0.2,0.5-0.4,0.6-0.7h3.4v14L368.7,246z"/>
	<path class="st1" d="M379.2,252.7V248h-9.1v-2.9l10.2-13.1h2.2v13h2.6v3h-2.6v4.7L379.2,252.7z M373.4,245h6.1v-8L373.4,245z"/>
	<path class="st1" d="M403,242c0,1-0.2,1.9-0.6,2.8c-0.4,0.9-0.9,1.7-1.6,2.3c-0.7,0.7-1.5,1.2-2.4,1.6c-1,0.4-2,0.6-3,0.6
		c-1.1,0-2.2-0.2-3.2-0.6c-0.9-0.4-1.8-1-2.4-1.8c-0.7-0.9-1.2-1.9-1.6-2.9c-0.4-1.3-0.6-2.6-0.5-3.9c0-1.8,0.2-3.6,0.6-5.3
		c0.3-1.3,0.9-2.6,1.6-3.8c0.6-1,1.5-1.8,2.5-2.3c1-0.5,2.2-0.8,3.3-0.8c1.3,0,2.6,0.3,3.7,0.9c1.1,0.6,2.1,1.5,2.7,2.6l-1.9,2
		c-0.4-0.8-1.1-1.5-1.9-2c-0.8-0.5-1.7-0.7-2.7-0.7c-1.4,0-2.8,0.7-3.5,1.9c-1,1.6-1.5,3.4-1.4,5.3c0.4-0.9,1.1-1.6,2-2.1
		c0.9-0.5,2-0.8,3-0.8c1,0,2,0.2,2.9,0.5c0.9,0.3,1.6,0.9,2.3,1.5c0.7,0.6,1.2,1.4,1.5,2.2C402.8,240.1,403,241,403,242z
		 M395.4,246.5c0.6,0,1.2-0.1,1.7-0.4c0.5-0.2,1-0.6,1.4-1c0.4-0.4,0.7-0.9,1-1.4c0.2-0.5,0.4-1.1,0.4-1.7c0-0.6-0.1-1.2-0.4-1.7
		c-0.5-1.1-1.3-1.9-2.4-2.4c-1.1-0.5-2.4-0.5-3.5,0c-1.1,0.5-1.9,1.3-2.4,2.4c-0.2,0.5-0.4,1.1-0.4,1.7c0,0.6,0.1,1.2,0.4,1.7
		c0.2,0.5,0.6,1,1,1.4c0.4,0.4,0.9,0.7,1.4,1C394.2,246.3,394.8,246.5,395.4,246.5z"/>
	<path class="st1" d="M405.3,239.3c0-1,0.2-1.9,0.6-2.8c0.4-0.9,0.9-1.7,1.6-2.3c0.7-0.7,1.5-1.2,2.4-1.6c1-0.4,2-0.6,3-0.6
		c1.1,0,2.2,0.2,3.1,0.6c0.9,0.4,1.8,1,2.4,1.8c0.7,0.9,1.2,1.9,1.6,2.9c0.4,1.3,0.6,2.6,0.5,3.9c0,1.8-0.2,3.6-0.6,5.3
		c-0.3,1.3-0.9,2.6-1.6,3.8c-0.6,1-1.5,1.8-2.5,2.3c-1,0.5-2.2,0.8-3.3,0.8c-1.3,0-2.6-0.3-3.7-0.9c-1.1-0.6-2.1-1.5-2.7-2.6l1.9-2
		c0.4,0.8,1.1,1.5,1.9,2c0.8,0.5,1.7,0.7,2.7,0.7c1.4,0,2.8-0.7,3.5-1.9c1-1.6,1.5-3.4,1.4-5.3c-0.4,0.9-1.1,1.6-1.9,2.1
		c-0.9,0.5-2,0.8-3,0.8c-1,0-2-0.2-2.9-0.5c-0.9-0.3-1.6-0.9-2.3-1.5c-0.7-0.6-1.2-1.4-1.5-2.2C405.4,241.2,405.2,240.3,405.3,239.3
		z M412.9,234.8c-0.6,0-1.2,0.1-1.7,0.4c-0.5,0.2-1,0.6-1.4,1c-0.4,0.4-0.7,0.9-1,1.4c-0.2,0.5-0.4,1.1-0.4,1.7
		c0,0.6,0.1,1.2,0.4,1.7c0.2,0.5,0.6,1,1,1.4c0.4,0.4,0.9,0.7,1.4,1c1.1,0.5,2.4,0.5,3.5,0c1.1-0.5,1.9-1.3,2.4-2.4
		c0.2-0.5,0.4-1.1,0.4-1.7c0-0.6-0.1-1.2-0.4-1.7c-0.2-0.5-0.6-1-1-1.4c-0.4-0.4-0.9-0.7-1.4-1C414,234.9,413.5,234.8,412.9,234.8
		L412.9,234.8z"/>
	<path class="st1" d="M438.5,242c0,1-0.2,1.9-0.6,2.8c-0.4,0.9-0.9,1.7-1.6,2.3c-0.7,0.7-1.5,1.2-2.4,1.6c-1,0.4-2,0.6-3,0.6
		c-1.1,0-2.2-0.2-3.2-0.6c-0.9-0.4-1.8-1-2.4-1.8c-0.7-0.9-1.2-1.9-1.6-2.9c-0.4-1.3-0.6-2.6-0.5-3.9c0-1.8,0.2-3.6,0.6-5.3
		c0.3-1.3,0.9-2.6,1.6-3.8c0.6-1,1.5-1.8,2.5-2.3c1-0.5,2.2-0.8,3.3-0.8c1.3,0,2.6,0.3,3.7,0.9c1.1,0.6,2.1,1.5,2.7,2.6l-1.9,2
		c-0.4-0.8-1.1-1.5-1.9-2c-0.8-0.5-1.7-0.7-2.7-0.7c-1.4,0-2.8,0.7-3.5,1.9c-1,1.6-1.5,3.4-1.4,5.3c0.4-0.9,1.1-1.6,2-2.1
		c0.9-0.5,2-0.8,3-0.8c1,0,2,0.2,2.9,0.5c0.9,0.3,1.6,0.9,2.3,1.5c0.7,0.6,1.2,1.4,1.5,2.2C438.3,240.1,438.5,241,438.5,242z
		 M430.9,246.5c0.6,0,1.2-0.1,1.7-0.4c0.5-0.2,1-0.6,1.4-1c0.4-0.4,0.7-0.9,1-1.4c0.2-0.5,0.4-1.1,0.4-1.7c0-0.6-0.1-1.2-0.4-1.7
		c-0.5-1.1-1.3-1.9-2.4-2.4c-1.1-0.5-2.4-0.5-3.5,0c-1.1,0.5-1.9,1.3-2.4,2.4c-0.2,0.5-0.4,1.1-0.4,1.7c0,0.6,0.1,1.2,0.4,1.7
		c0.2,0.5,0.6,1,1,1.4c0.4,0.4,0.9,0.7,1.4,1C429.7,246.3,430.3,246.5,430.9,246.5z"/>
	<path class="st1" d="M458.7,227.9l-14.5,21h-3.6l14.5-21H458.7z"/>
	<path class="st1" d="M470,249.1c-1.4,0-2.8-0.3-4.1-0.9c-1.2-0.6-2.3-1.4-3.2-2.4c-0.9-1-1.6-2.2-2.1-3.4c-0.5-1.3-0.7-2.6-0.7-3.9
		c0-1.4,0.3-2.7,0.8-4c0.5-1.3,1.2-2.4,2.1-3.4c0.9-1,2-1.8,3.2-2.4c1.3-0.6,2.7-0.9,4.1-0.9c1.4,0,2.8,0.3,4.1,0.9
		c1.2,0.6,2.3,1.4,3.2,2.4c0.9,1,1.6,2.2,2,3.4c1,2.6,1,5.4,0,7.9c-0.5,1.3-1.2,2.4-2.1,3.4c-0.9,1-2,1.8-3.2,2.3
		C472.8,248.8,471.4,249.1,470,249.1z M463.3,238.4c0,1,0.2,1.9,0.5,2.9c0.3,0.9,0.8,1.7,1.4,2.5c0.6,0.7,1.3,1.3,2.1,1.7
		c0.9,0.4,1.8,0.7,2.8,0.6c1,0,2-0.2,2.8-0.7c0.8-0.4,1.5-1,2.1-1.8c0.6-0.7,1-1.6,1.3-2.5c0.6-1.8,0.6-3.8,0-5.7
		c-0.3-0.9-0.8-1.7-1.4-2.4c-0.6-0.7-1.3-1.3-2.1-1.7c-0.9-0.4-1.8-0.7-2.7-0.6c-1,0-2,0.2-2.9,0.7c-0.8,0.4-1.5,1-2.1,1.7
		c-0.6,0.7-1,1.6-1.3,2.4C463.4,236.5,463.3,237.5,463.3,238.4L463.3,238.4z"/>
	<path class="st1" d="M483,242.3v-2.9h8.9v2.9H483z"/>
	<path class="st1" d="M502.2,239.6c0.9,0,1.9,0.2,2.7,0.5c0.8,0.3,1.6,0.8,2.2,1.4c0.6,0.6,1.1,1.3,1.5,2.1c0.7,1.8,0.7,3.8-0.1,5.6
		c-0.4,0.9-0.9,1.6-1.6,2.2c-0.7,0.6-1.5,1.1-2.4,1.4c-1,0.3-2,0.5-3,0.5c-1.4,0-2.8-0.3-4.1-1c-1.2-0.6-2.1-1.6-2.8-2.8l2-1.9
		c0.6,0.8,1.3,1.5,2.1,2c0.8,0.5,1.8,0.8,2.8,0.8c1.1,0,2.2-0.4,3-1.1c0.8-0.8,1.2-1.9,1.2-3c0-0.6-0.1-1.1-0.3-1.6
		c-0.2-0.5-0.5-0.9-0.8-1.2c-0.4-0.4-0.8-0.6-1.3-0.8c-0.5-0.2-1-0.3-1.6-0.3c-0.7,0-1.5,0.2-2.1,0.5c-0.7,0.3-1.2,0.8-1.6,1.4h-2.9
		c0-0.1,0.1-0.3,0.1-0.7s0.2-0.9,0.3-1.5s0.2-1.3,0.4-2c0.1-0.7,0.3-1.5,0.4-2.2c0.4-1.8,0.7-3.7,1.2-5.9h10.3v3h-7.9l-1.1,5.7
		c0.4-0.4,0.8-0.7,1.4-0.9C500.8,239.7,501.5,239.5,502.2,239.6z"/>
	<rect x="0" y="301" class="st1" width="630" height="49"/>
	<path class="st0" d="M57.6,336.5v-22.5h9.5c1,0,1.9,0.2,2.8,0.6c0.8,0.4,1.6,1,2.2,1.7c0.6,0.7,1.1,1.5,1.4,2.4
		c0.3,0.9,0.5,1.8,0.5,2.7c0,0.9-0.2,1.9-0.5,2.7c-0.3,0.9-0.8,1.7-1.4,2.3c-0.6,0.7-1.3,1.3-2.1,1.7c-0.9,0.4-1.8,0.6-2.8,0.6h-6.1
		v7.8H57.6z M61.2,325.5h5.9c0.5,0,1-0.1,1.4-0.3c0.4-0.2,0.8-0.5,1.1-0.9c0.3-0.4,0.5-0.9,0.7-1.3c0.2-0.5,0.3-1.1,0.3-1.7
		c0-0.6-0.1-1.2-0.3-1.7c-0.2-0.5-0.4-0.9-0.8-1.3c-0.3-0.4-0.7-0.7-1.2-0.9c-0.4-0.2-0.9-0.3-1.4-0.3h-5.7V325.5z"/>
	<path class="st0" d="M84.3,336.8c-1.2,0-2.4-0.2-3.5-0.7c-1-0.4-1.9-1.1-2.7-1.9c-0.8-0.8-1.4-1.7-1.8-2.7
		c-0.4-1.1-0.6-2.2-0.6-3.3c0-1.1,0.2-2.3,0.6-3.3c0.4-1,1-2,1.8-2.8c0.8-0.8,1.7-1.4,2.7-1.9c1.1-0.5,2.3-0.7,3.6-0.7
		c1.2,0,2.4,0.2,3.5,0.7c1,0.4,1.9,1.1,2.7,1.9c0.7,0.8,1.3,1.7,1.7,2.7c0.4,1,0.6,2.1,0.6,3.2c0,0.3,0,0.5,0,0.7
		c0,0.2,0,0.4-0.1,0.6H79.4c0.1,0.7,0.2,1.4,0.5,2c0.3,0.6,0.7,1.1,1.1,1.5c0.5,0.4,1,0.8,1.6,1c0.6,0.2,1.2,0.4,1.8,0.3
		c0.5,0,0.9-0.1,1.4-0.2c0.4-0.1,0.9-0.3,1.3-0.5c0.4-0.2,0.7-0.5,1-0.8c0.3-0.3,0.5-0.7,0.7-1l3,0.9c-0.6,1.3-1.6,2.4-2.9,3.1
		C87.5,336.4,85.9,336.8,84.3,336.8z M89.3,326.9c-0.1-0.7-0.2-1.3-0.5-1.9c-0.3-0.6-0.6-1.1-1.1-1.5c-0.5-0.4-1-0.7-1.6-1
		c-0.6-0.2-1.2-0.4-1.9-0.3c-0.6,0-1.3,0.1-1.9,0.3c-0.6,0.2-1.1,0.6-1.5,1c-0.5,0.4-0.8,0.9-1.1,1.5c-0.3,0.6-0.5,1.3-0.5,1.9H89.3
		z"/>
	<path class="st0" d="M105,322.9c-1.3,0-2.5,0.3-3.6,0.9c-1,0.5-1.8,1.4-2.2,2.5v10.2h-3.5v-16.6h3.2v3.7c0.5-1.1,1.3-2,2.2-2.7
		c0.9-0.7,1.9-1.1,3-1.1h0.5c0.1,0,0.2,0,0.4,0V322.9z"/>
	<path class="st0" d="M107.6,336.5v-16.6h3.5v16.6H107.6z M110.1,317.5l-2.3-0.7l1.8-3.5h3.3L110.1,317.5z"/>
	<path class="st0" d="M114.2,328.1c0-1.1,0.2-2.3,0.6-3.3c0.8-2.1,2.4-3.7,4.5-4.6c1.1-0.5,2.3-0.7,3.6-0.7c1.6,0,3.1,0.3,4.4,1.1
		c1.2,0.7,2.2,1.8,2.8,3l-3.4,1.1c-0.4-0.7-0.9-1.2-1.6-1.6c-0.7-0.4-1.5-0.6-2.3-0.6c-1.3,0-2.6,0.6-3.5,1.6
		c-0.5,0.5-0.8,1.1-1.1,1.8c-0.3,0.7-0.4,1.5-0.4,2.3c0,0.8,0.1,1.5,0.4,2.2c0.2,0.7,0.6,1.3,1.1,1.8c0.4,0.5,1,0.9,1.6,1.2
		c0.6,0.3,1.3,0.4,1.9,0.4c0.4,0,0.9-0.1,1.3-0.2c0.4-0.1,0.8-0.3,1.2-0.5c0.3-0.2,0.6-0.4,0.9-0.7c0.3-0.3,0.5-0.6,0.6-0.9l3.4,1
		c-0.6,1.3-1.6,2.4-2.8,3.1c-1.4,0.8-3,1.2-4.6,1.2c-1.2,0-2.4-0.2-3.5-0.7c-1-0.4-2-1.1-2.7-1.9c-0.8-0.8-1.3-1.7-1.8-2.7
		C114.4,330.4,114.2,329.3,114.2,328.1z"/>
	<path class="st0" d="M133.1,317.1v-3.8h3.5v3.8H133.1z M133.1,336.5v-16.6h3.5v16.6H133.1z"/>
	<path class="st0" d="M145.2,336.8c-0.8,0-1.5-0.1-2.2-0.4c-0.7-0.2-1.3-0.6-1.8-1.1c-0.5-0.5-0.9-1-1.2-1.7
		c-0.3-0.6-0.4-1.4-0.4-2.1c0-0.7,0.2-1.5,0.5-2.1c0.4-0.7,0.8-1.2,1.4-1.7c0.7-0.5,1.4-0.9,2.2-1.1c0.9-0.3,1.9-0.4,2.8-0.4
		c0.8,0,1.6,0.1,2.3,0.2c0.7,0.1,1.4,0.3,2.1,0.6V326c0.1-1.1-0.3-2.1-1.1-2.9c-0.8-0.7-1.9-1.1-3-1c-0.9,0-1.8,0.2-2.6,0.5
		c-0.9,0.4-1.8,0.8-2.7,1.4l-1.1-2.2c2-1.4,4.3-2.1,6.7-2.2c1.9-0.1,3.9,0.5,5.3,1.7c1.3,1.3,2,3.1,1.9,5v6c0,0.7,0.3,1.1,0.9,1.1v3
		c-0.3,0.1-0.6,0.1-0.9,0.1c-0.2,0-0.5,0-0.7,0c-0.6,0-1.1-0.1-1.6-0.5c-0.4-0.3-0.6-0.8-0.7-1.3l-0.1-1c-0.7,1-1.7,1.7-2.8,2.2
		C147.6,336.5,146.4,336.8,145.2,336.8z M146.2,334.2c0.8,0,1.6-0.2,2.4-0.5c0.7-0.3,1.3-0.7,1.8-1.3c0.4-0.3,0.6-0.7,0.7-1.2v-2.2
		c-0.6-0.2-1.2-0.4-1.9-0.5c-0.6-0.1-1.3-0.2-2-0.2c-1.1,0-2.2,0.2-3.1,0.8c-0.7,0.5-1.2,1.3-1.2,2.1c0,0.8,0.3,1.6,0.9,2.1
		C144.5,333.9,145.3,334.2,146.2,334.2z"/>
	<path class="st0" d="M165.6,325c0-1.4,0.3-2.8,0.7-4c0.5-1.3,1.2-2.6,2.1-3.6c1-1.1,2.1-2,3.5-2.6c1.4-0.7,3-1,4.6-1
		c1.9-0.1,3.7,0.4,5.3,1.4c1.4,0.9,2.6,2.1,3.3,3.6l-2.8,1.9c-0.3-0.6-0.7-1.2-1.1-1.7c-0.4-0.4-0.9-0.8-1.5-1.1
		c-0.5-0.3-1.1-0.5-1.7-0.6c-0.5-0.1-1.1-0.2-1.7-0.2c-1.1,0-2.2,0.2-3.1,0.7c-0.9,0.5-1.6,1.1-2.2,1.9c-0.6,0.8-1.1,1.7-1.4,2.6
		c-0.3,0.9-0.5,1.9-0.5,2.9c0,1.1,0.2,2.1,0.5,3.1c0.3,1,0.9,1.9,1.5,2.6c0.6,0.8,1.4,1.4,2.3,1.8c0.9,0.5,1.9,0.7,2.9,0.7
		c0.6,0,1.1-0.1,1.7-0.2c0.6-0.1,1.2-0.4,1.7-0.7c0.6-0.3,1.1-0.7,1.5-1.2c0.5-0.5,0.9-1.1,1.1-1.7l3,1.7c-0.4,0.8-0.9,1.6-1.5,2.2
		c-0.7,0.6-1.4,1.2-2.2,1.6c-0.8,0.4-1.7,0.8-2.6,1c-0.9,0.2-1.8,0.3-2.7,0.3c-1.5,0-3-0.3-4.4-1c-1.3-0.7-2.4-1.6-3.4-2.7
		c-1-1.1-1.7-2.4-2.2-3.7C165.9,327.9,165.6,326.5,165.6,325z"/>
	<path class="st0" d="M195.9,336.8c-1.2,0-2.4-0.2-3.5-0.7c-2-0.9-3.6-2.5-4.4-4.6c-0.8-2.1-0.8-4.5,0-6.6c0.4-1,1-2,1.7-2.7
		c0.8-0.8,1.7-1.4,2.7-1.9c2.3-0.9,4.8-0.9,7,0c1,0.4,1.9,1.1,2.7,1.9c0.8,0.8,1.3,1.7,1.7,2.7c0.8,2.1,0.8,4.5,0,6.6
		c-0.4,1-1,2-1.7,2.7c-0.8,0.8-1.7,1.4-2.7,1.9C198.3,336.6,197.1,336.8,195.9,336.8z M190.9,328.2c0,0.8,0.1,1.5,0.4,2.2
		c0.2,0.6,0.6,1.2,1.1,1.8c0.4,0.5,1,0.9,1.6,1.2c1.2,0.6,2.7,0.6,3.9,0c0.6-0.3,1.1-0.7,1.6-1.2c0.5-0.5,0.8-1.1,1.1-1.8
		c0.5-1.4,0.5-3,0-4.4c-0.2-0.7-0.6-1.3-1.1-1.8c-0.4-0.5-1-0.9-1.6-1.2c-0.6-0.3-1.3-0.4-2-0.4c-0.7,0-1.3,0.2-1.9,0.4
		c-0.6,0.3-1.1,0.7-1.6,1.2c-0.5,0.5-0.8,1.1-1.1,1.8C191,326.7,190.9,327.5,190.9,328.2L190.9,328.2z"/>
	<path class="st0" d="M222.5,336.5H219v-9.3c0.1-1.2-0.2-2.4-0.7-3.4c-0.5-0.7-1.3-1.1-2.2-1.1c-0.5,0-1,0.1-1.5,0.3
		c-0.5,0.2-1,0.5-1.4,0.8c-0.5,0.4-0.9,0.8-1.2,1.2c-0.4,0.5-0.6,1-0.8,1.6v9.9h-3.5v-16.6h3.2v3.3c0.6-1.1,1.6-2.1,2.8-2.7
		c1.2-0.7,2.6-1,4-1c0.8,0,1.7,0.2,2.5,0.5c0.6,0.4,1.1,0.9,1.5,1.5c0.4,0.7,0.7,1.4,0.8,2.2c0.2,0.9,0.2,1.7,0.2,2.6L222.5,336.5z"
		/>
	<path class="st0" d="M235.7,335.6c-0.6,0.3-1.2,0.5-1.8,0.7c-0.8,0.3-1.7,0.4-2.5,0.4c-0.5,0-1.1-0.1-1.6-0.2
		c-0.5-0.1-0.9-0.4-1.3-0.7c-0.4-0.3-0.7-0.7-0.9-1.2c-0.2-0.5-0.3-1.1-0.3-1.7v-10.4h-2.2v-2.7h2.2v-5.5h3.5v5.5h3.6v2.7h-3.6v9.3
		c0,0.5,0.2,1,0.6,1.3c0.3,0.3,0.8,0.4,1.2,0.4c0.5,0,1-0.1,1.4-0.3c0.4-0.2,0.8-0.3,1-0.4L235.7,335.6z"/>
	<path class="st0" d="M242.5,336.8c-0.8,0-1.5-0.1-2.2-0.4c-0.7-0.2-1.3-0.6-1.8-1.1c-0.5-0.5-0.9-1-1.2-1.7
		c-0.3-0.6-0.4-1.4-0.4-2.1c0-0.7,0.2-1.5,0.5-2.1c0.4-0.7,0.8-1.2,1.4-1.7c0.7-0.5,1.4-0.9,2.2-1.1c0.9-0.3,1.9-0.4,2.8-0.4
		c0.8,0,1.6,0.1,2.3,0.2c0.7,0.1,1.4,0.3,2.1,0.6V326c0.1-1.1-0.3-2.1-1.1-2.9c-0.8-0.7-1.9-1.1-3-1c-0.9,0-1.8,0.2-2.6,0.5
		c-0.9,0.4-1.8,0.8-2.7,1.4l-1.1-2.2c2-1.4,4.3-2.1,6.7-2.2c1.9-0.1,3.9,0.5,5.3,1.7c1.3,1.3,2,3.1,1.9,5v6c0,0.7,0.3,1.1,0.9,1.1v3
		c-0.3,0.1-0.6,0.1-0.9,0.1c-0.2,0-0.5,0-0.7,0c-0.6,0-1.1-0.1-1.6-0.5c-0.4-0.3-0.6-0.8-0.7-1.3l-0.1-1c-0.7,1-1.7,1.7-2.8,2.2
		C244.9,336.5,243.7,336.8,242.5,336.8z M243.5,334.2c0.8,0,1.6-0.2,2.4-0.5c0.7-0.3,1.3-0.7,1.8-1.3c0.4-0.3,0.6-0.7,0.7-1.2v-2.2
		c-0.6-0.2-1.2-0.4-1.9-0.5c-0.6-0.1-1.3-0.2-2-0.2c-1.1,0-2.2,0.2-3.1,0.8c-0.7,0.5-1.2,1.3-1.2,2.1c0,0.8,0.3,1.6,0.9,2.1
		C241.8,333.9,242.6,334.2,243.5,334.2z M245.3,317.5l-2.3-0.7l1.8-3.5h3.3L245.3,317.5z"/>
	<path class="st0" d="M265,336.8c-2.4,0-4.7-1.2-5.9-3.3v3H256v-23.2h3.5v9.7c0.6-1,1.5-1.9,2.5-2.5c2-1.1,4.4-1.2,6.5-0.2
		c0.9,0.5,1.7,1.1,2.3,1.9c0.7,0.8,1.2,1.8,1.5,2.8c0.4,1.1,0.5,2.2,0.5,3.3c0,1.1-0.2,2.3-0.6,3.3c-0.4,1-0.9,1.9-1.7,2.7
		c-0.7,0.8-1.6,1.4-2.5,1.8C267.2,336.6,266.1,336.8,265,336.8z M264.1,333.8c0.7,0,1.4-0.1,2.1-0.5c0.6-0.3,1.2-0.7,1.6-1.2
		c0.5-0.5,0.8-1.1,1.1-1.8c0.3-0.7,0.4-1.4,0.4-2.1c0-0.7-0.1-1.5-0.4-2.1c-0.2-0.7-0.6-1.3-1-1.8c-0.4-0.5-1-0.9-1.6-1.3
		c-0.6-0.3-1.3-0.5-2-0.5c-1.1,0-2.1,0.4-2.9,1c-0.8,0.7-1.5,1.6-1.9,2.5v4.4c0.1,0.5,0.4,0.9,0.7,1.3c0.3,0.4,0.7,0.7,1.1,1
		c0.4,0.3,0.9,0.5,1.4,0.7C263.1,333.7,263.6,333.8,264.1,333.8L264.1,333.8z"/>
	<path class="st0" d="M276,317.1v-3.8h3.5v3.8H276z M276,336.5v-16.6h3.5v16.6H276z"/>
	<path class="st0" d="M283.8,313.3h3.5v18.4c0,0.5,0.1,1,0.5,1.4c0.3,0.4,0.8,0.6,1.3,0.5c0.3,0,0.5,0,0.8-0.1
		c0.3-0.1,0.6-0.2,0.9-0.3l0.5,2.7c-0.6,0.3-1.2,0.4-1.8,0.6c-0.6,0.1-1.2,0.2-1.9,0.2c-1,0.1-2-0.3-2.8-1c-0.7-0.8-1.1-1.8-1-2.8
		L283.8,313.3z"/>
	<path class="st0" d="M307.7,336.8c-1.2,0-2.4-0.2-3.5-0.7c-1-0.4-1.9-1.1-2.7-1.9c-0.8-0.8-1.4-1.7-1.8-2.7
		c-0.4-1.1-0.6-2.2-0.6-3.3c0-1.1,0.2-2.3,0.6-3.3c0.4-1,1-2,1.8-2.8c0.8-0.8,1.7-1.4,2.7-1.9c1.1-0.5,2.3-0.7,3.6-0.7
		c1.2,0,2.4,0.2,3.5,0.7c1,0.4,1.9,1.1,2.7,1.9c0.7,0.8,1.3,1.7,1.7,2.7c0.4,1,0.6,2.1,0.6,3.2c0,0.3,0,0.5,0,0.7
		c0,0.2,0,0.4-0.1,0.6h-13.3c0.1,0.7,0.2,1.4,0.5,2c0.3,0.6,0.7,1.1,1.1,1.5c0.5,0.4,1,0.8,1.6,1c0.6,0.2,1.2,0.4,1.8,0.3
		c0.5,0,0.9-0.1,1.4-0.2c0.4-0.1,0.9-0.3,1.3-0.5c0.4-0.2,0.7-0.5,1-0.8c0.3-0.3,0.5-0.7,0.7-1l3,0.9c-0.6,1.3-1.6,2.4-2.9,3.1
		C311,336.4,309.4,336.8,307.7,336.8z M312.8,326.9c-0.1-0.7-0.2-1.3-0.5-1.9c-0.3-0.6-0.6-1.1-1.1-1.5c-0.5-0.4-1-0.7-1.6-1
		c-0.6-0.2-1.2-0.4-1.9-0.3c-0.6,0-1.3,0.1-1.9,0.3c-0.6,0.2-1.1,0.6-1.5,1c-0.5,0.4-0.8,0.9-1.1,1.5c-0.3,0.6-0.5,1.3-0.5,1.9
		H312.8z"/>
	<path class="st0" d="M325.9,325.8c0-1.3,0.2-2.6,0.7-3.8c0.4-1.2,1.1-2.4,2-3.4c0.9-1,2-1.8,3.2-2.4c1.3-0.6,2.8-0.9,4.3-0.9
		c1.7,0,3.4,0.4,4.9,1.3c1.3,0.8,2.4,1.9,3.1,3.3l-2.6,1.7c-0.3-0.6-0.6-1.1-1.1-1.6c-0.4-0.4-0.9-0.8-1.4-1c-0.5-0.3-1-0.4-1.5-0.5
		c-0.5-0.1-1-0.2-1.5-0.2c-1,0-2,0.2-2.9,0.7c-0.8,0.4-1.5,1-2.1,1.8c-0.6,0.7-1,1.6-1.3,2.5c-0.3,0.9-0.4,1.8-0.4,2.7
		c0,1,0.2,2,0.5,2.9c0.3,0.9,0.8,1.7,1.4,2.5c0.6,0.7,1.3,1.3,2.2,1.7c0.8,0.4,1.8,0.6,2.7,0.6c0.5,0,1.1-0.1,1.6-0.2
		c0.6-0.1,1.1-0.3,1.6-0.6c0.5-0.3,1-0.7,1.4-1.1c0.4-0.5,0.8-1,1.1-1.6l2.8,1.6c-0.3,0.8-0.8,1.5-1.4,2.1c-0.6,0.6-1.3,1.1-2.1,1.5
		c-0.8,0.4-1.6,0.7-2.5,1c-0.8,0.2-1.7,0.3-2.5,0.3c-1.4,0-2.8-0.3-4.1-0.9c-1.2-0.6-2.3-1.5-3.2-2.5c-0.9-1-1.6-2.2-2.1-3.5
		C326.2,328.5,325.9,327.2,325.9,325.8z"/>
	<path class="st0" d="M351.3,336.8c-0.7,0-1.4-0.1-2.1-0.4c-0.6-0.2-1.2-0.6-1.7-1c-0.5-0.4-0.8-1-1.1-1.5c-0.3-0.6-0.4-1.3-0.4-1.9
		c0-0.7,0.2-1.4,0.5-2c0.3-0.6,0.8-1.1,1.4-1.5c0.6-0.5,1.3-0.8,2.1-1c0.9-0.2,1.8-0.4,2.7-0.4c0.7,0,1.5,0.1,2.2,0.2
		c0.7,0.1,1.3,0.3,1.9,0.5v-1.1c0.1-1-0.3-2-1-2.7c-0.8-0.7-1.8-1-2.8-1c-0.8,0-1.7,0.2-2.5,0.5c-0.9,0.3-1.7,0.8-2.5,1.3l-1-2.1
		c1.8-1.3,4-2,6.2-2c1.8-0.1,3.6,0.5,5,1.6c1.2,1.2,1.9,2.9,1.8,4.7v5.6c0,0.7,0.3,1,0.9,1.1v2.8c-0.3,0.1-0.5,0.1-0.8,0.1
		c-0.2,0-0.4,0-0.7,0c-0.5,0-1.1-0.1-1.5-0.5c-0.3-0.3-0.6-0.7-0.6-1.2l-0.1-1c-0.7,0.9-1.6,1.6-2.6,2.1
		C353.6,336.5,352.5,336.8,351.3,336.8z M352.2,334.4c0.8,0,1.5-0.1,2.2-0.4c0.6-0.2,1.2-0.7,1.6-1.2c0.4-0.3,0.6-0.7,0.6-1.1v-2
		c-0.6-0.2-1.2-0.4-1.8-0.5c-0.6-0.1-1.2-0.2-1.8-0.2c-1,0-2,0.2-2.9,0.8c-0.7,0.4-1.1,1.2-1.1,2c0,0.7,0.3,1.5,0.9,1.9
		C350.6,334.1,351.4,334.4,352.2,334.4L352.2,334.4z M354,318.7l-2.1-0.7l1.7-3.3h3.1L354,318.7z"/>
	<path class="st0" d="M364,314.8h3.3V332c0,0.5,0.1,1,0.4,1.3c0.3,0.3,0.8,0.5,1.2,0.5c0.3,0,0.5,0,0.8-0.1c0.3-0.1,0.5-0.2,0.8-0.3
		l0.5,2.5c-0.5,0.2-1.1,0.4-1.7,0.5c-0.6,0.1-1.2,0.2-1.8,0.2c-1,0.1-1.9-0.3-2.6-0.9c-0.7-0.7-1-1.6-0.9-2.6L364,314.8z"/>
	<path class="st0" d="M371.9,328.7c0-1.1,0.2-2.1,0.6-3.1c0.7-1.9,2.2-3.5,4.2-4.3c1.1-0.4,2.2-0.7,3.3-0.6c1.5,0,2.9,0.3,4.1,1.1
		c1.1,0.7,2,1.6,2.6,2.8l-3.2,1c-0.4-0.6-0.9-1.2-1.5-1.5c-0.6-0.4-1.4-0.6-2.1-0.5c-0.6,0-1.3,0.1-1.8,0.4
		c-0.6,0.3-1.1,0.6-1.5,1.1c-0.4,0.5-0.8,1-1,1.6c-0.2,0.7-0.4,1.4-0.4,2.1c0,0.7,0.1,1.4,0.4,2.1c0.2,0.6,0.6,1.2,1,1.7
		c0.4,0.5,0.9,0.8,1.5,1.1c0.6,0.3,1.2,0.4,1.8,0.4c0.4,0,0.8-0.1,1.2-0.2c0.4-0.1,0.7-0.3,1.1-0.5c0.3-0.2,0.6-0.4,0.9-0.7
		c0.2-0.2,0.4-0.5,0.5-0.8l3.2,0.9c-0.5,1.2-1.4,2.2-2.6,2.9c-1.3,0.8-2.8,1.1-4.3,1.1c-1.1,0-2.3-0.2-3.3-0.7c-1-0.4-1.8-1-2.5-1.8
		c-0.7-0.7-1.3-1.6-1.6-2.6C372.1,330.8,371.9,329.8,371.9,328.7z"/>
	<path class="st0" d="M394.3,336.8c-1.4,0.1-2.8-0.5-3.7-1.6c-0.9-1.4-1.4-3.1-1.2-4.7V321h3.3v8.8c0,2.8,1,4.2,3,4.2
		c0.9,0,1.9-0.3,2.6-0.9c0.9-0.6,1.5-1.5,1.9-2.5V321h3.3v11.6c0,0.3,0,0.6,0.2,0.8c0.2,0.2,0.4,0.3,0.7,0.3v2.8
		c-0.3,0.1-0.6,0.1-0.8,0.1c-0.2,0-0.4,0-0.6,0c-0.5,0-1.1-0.2-1.5-0.5c-0.4-0.3-0.6-0.8-0.7-1.3l-0.1-1.5c-0.6,1.1-1.6,2-2.7,2.6
		C396.8,336.5,395.6,336.8,394.3,336.8z"/>
	<path class="st0" d="M407.6,314.8h3.3V332c0,0.5,0.1,1,0.4,1.3c0.3,0.3,0.8,0.5,1.2,0.5c0.3,0,0.5,0,0.8-0.1
		c0.3-0.1,0.5-0.2,0.8-0.3l0.5,2.5c-0.5,0.2-1.1,0.4-1.7,0.5c-0.6,0.1-1.2,0.2-1.8,0.2c-1,0.1-1.9-0.3-2.6-0.9
		c-0.7-0.7-1-1.6-0.9-2.6L407.6,314.8z"/>
	<path class="st0" d="M423.5,336.8c-1.1,0-2.3-0.2-3.3-0.7c-1.9-0.8-3.4-2.4-4.1-4.3c-0.8-2-0.8-4.2,0-6.1c0.4-1,0.9-1.8,1.6-2.6
		c0.7-0.7,1.6-1.3,2.5-1.7c2.1-0.9,4.5-0.9,6.6,0c0.9,0.4,1.8,1,2.5,1.7c0.7,0.7,1.3,1.6,1.6,2.6c0.8,2,0.8,4.2,0,6.1
		c-0.4,1-0.9,1.8-1.6,2.6C427.8,335.9,425.7,336.8,423.5,336.8L423.5,336.8z M418.9,328.8c0,0.7,0.1,1.4,0.4,2.1
		c0.2,0.6,0.6,1.2,1,1.6c0.4,0.5,0.9,0.8,1.5,1.1c1.2,0.5,2.5,0.5,3.7,0c0.6-0.3,1.1-0.6,1.5-1.1c0.4-0.5,0.8-1.1,1-1.7
		c0.5-1.3,0.5-2.8,0-4.1c-0.2-0.6-0.6-1.2-1-1.7c-0.4-0.5-0.9-0.8-1.5-1.1c-0.6-0.3-1.2-0.4-1.8-0.4c-0.6,0-1.2,0.1-1.8,0.4
		c-0.6,0.3-1.1,0.7-1.5,1.1c-0.4,0.5-0.8,1.1-1,1.7C419,327.4,418.9,328.1,418.9,328.8L418.9,328.8z"/>
	<path class="st0" d="M440.1,336.8c-1.3,0-2.5-0.2-3.7-0.6c-1.2-0.4-2.3-1-3.2-1.7l1.3-2.1c0.8,0.6,1.8,1.1,2.8,1.5
		c0.9,0.3,1.8,0.5,2.8,0.5c0.8,0,1.6-0.2,2.3-0.6c0.5-0.3,0.9-1,0.8-1.6c0-0.6-0.4-1.2-1-1.4c-1-0.4-2-0.7-3-1
		c-1-0.3-1.8-0.5-2.5-0.7c-0.6-0.2-1.2-0.5-1.7-0.8c-0.4-0.3-0.7-0.7-1-1.1c-0.2-0.5-0.3-1-0.3-1.5c0-0.7,0.1-1.4,0.5-2.1
		c0.3-0.6,0.7-1.1,1.3-1.6c0.6-0.4,1.2-0.8,1.9-1c0.8-0.2,1.6-0.3,2.4-0.3c1.1,0,2.2,0.2,3.3,0.5c1,0.3,1.9,0.9,2.7,1.5l-1.4,2
		c-1.3-1.1-2.9-1.7-4.6-1.7c-0.7,0-1.5,0.2-2.1,0.5c-0.6,0.3-0.9,1-0.8,1.6c0,0.3,0.1,0.6,0.2,0.8c0.1,0.2,0.3,0.4,0.6,0.6
		c0.3,0.2,0.7,0.3,1,0.4c0.4,0.1,1,0.3,1.6,0.4c1,0.3,2,0.5,2.7,0.8c0.7,0.2,1.3,0.5,1.9,0.9c0.5,0.3,0.8,0.7,1.1,1.2
		c0.3,0.5,0.4,1.1,0.4,1.7c0.1,1.4-0.6,2.7-1.7,3.5C443.3,336.4,441.7,336.9,440.1,336.8z"/>
	<path class="st0" d="M454.8,332.8c0.5,0.3,1,0.5,1.5,0.7c0.7,0.2,1.5,0.4,2.3,0.3c0.8,0,1.5-0.1,2.2-0.5c0.6-0.3,1-0.8,1.2-1.5
		c0.3-0.8,0.5-1.6,0.6-2.4c0.1-1,0.1-2.1,0.1-3.3v-10.7h3.4v10.7c0,1.5-0.1,2.9-0.2,4.4c-0.1,1.2-0.5,2.3-1,3.4
		c-0.5,0.9-1.3,1.7-2.3,2.2c-1.2,0.6-2.6,0.8-4,0.8c-1.6,0-3.2-0.4-4.6-1.3L454.8,332.8z"/>
	<path class="st0" d="M475,336.8c-1.4,0.1-2.8-0.5-3.7-1.6c-0.9-1.4-1.4-3.1-1.2-4.7V321h3.3v8.8c0,2.8,1,4.2,3,4.2
		c0.9,0,1.9-0.3,2.6-0.9c0.9-0.6,1.5-1.5,1.9-2.5V321h3.3v11.6c0,0.3,0,0.6,0.2,0.8c0.2,0.2,0.4,0.3,0.7,0.3v2.8
		c-0.3,0.1-0.6,0.1-0.8,0.1c-0.2,0-0.4,0-0.6,0c-0.5,0-1.1-0.2-1.5-0.5c-0.4-0.3-0.6-0.8-0.7-1.3l-0.1-1.5c-0.6,1.1-1.6,2-2.7,2.6
		C477.5,336.5,476.2,336.8,475,336.8z"/>
	<path class="st0" d="M494.6,336.8c-1,0-2-0.2-2.9-0.6c-0.9-0.4-1.7-1-2.3-1.7c-0.7-0.8-1.2-1.6-1.5-2.6c-0.7-2-0.7-4.2,0-6.2
		c0.3-0.9,0.8-1.8,1.5-2.5c0.6-0.7,1.4-1.3,2.2-1.7c0.9-0.4,1.8-0.6,2.8-0.6c1.2,0,2.3,0.3,3.3,0.9c0.9,0.6,1.7,1.4,2.2,2.3v-9.1
		h3.3v17.8c0,0.3,0,0.6,0.2,0.8c0.2,0.2,0.4,0.3,0.7,0.3v2.8c-0.3,0.1-0.6,0.1-0.8,0.1c-0.2,0-0.4,0-0.5,0c-0.6,0-1.1-0.2-1.6-0.5
		c-0.4-0.3-0.7-0.8-0.7-1.3l-0.1-1.2c-0.6,1-1.4,1.7-2.3,2.3C496.9,336.5,495.8,336.8,494.6,336.8z M495.4,334c0.5,0,1-0.1,1.4-0.2
		c0.5-0.2,0.9-0.4,1.3-0.7c0.4-0.3,0.7-0.6,1-1c0.3-0.4,0.5-0.8,0.6-1.2v-4.1c-0.2-0.5-0.4-1-0.8-1.4c-0.3-0.4-0.7-0.8-1.1-1.1
		c-0.4-0.3-0.9-0.5-1.3-0.7c-0.5-0.2-0.9-0.2-1.4-0.2c-0.6,0-1.2,0.1-1.8,0.4c-0.5,0.3-1,0.7-1.4,1.2c-0.4,0.5-0.7,1.1-0.9,1.7
		c-0.2,0.6-0.3,1.3-0.3,2c0,0.7,0.1,1.4,0.4,2c0.2,0.6,0.6,1.2,1,1.7c0.4,0.5,0.9,0.8,1.5,1.1C494.2,333.8,494.8,334,495.4,334
		L495.4,334z"/>
	<path class="st0" d="M507.2,318.4v-3.6h3.3v3.6L507.2,318.4z M507.2,336.5V321h3.3v15.5H507.2z"/>
	<path class="st0" d="M513.4,328.7c0-1.1,0.2-2.1,0.6-3.1c0.7-1.9,2.2-3.5,4.2-4.3c1.1-0.4,2.2-0.7,3.3-0.6c1.5,0,2.9,0.3,4.1,1.1
		c1.1,0.7,2,1.6,2.6,2.8l-3.2,1c-0.4-0.6-0.9-1.2-1.5-1.5c-0.6-0.4-1.4-0.6-2.1-0.5c-0.6,0-1.3,0.1-1.8,0.4
		c-0.6,0.3-1.1,0.6-1.5,1.1c-0.4,0.5-0.8,1-1,1.6c-0.2,0.7-0.4,1.4-0.4,2.1c0,0.7,0.1,1.4,0.4,2.1c0.2,0.6,0.6,1.2,1,1.7
		c0.4,0.5,0.9,0.8,1.5,1.1c0.6,0.3,1.2,0.4,1.8,0.4c0.4,0,0.8-0.1,1.2-0.2c0.4-0.1,0.7-0.3,1.1-0.5c0.3-0.2,0.6-0.4,0.9-0.7
		c0.2-0.2,0.4-0.5,0.5-0.8l3.2,0.9c-0.5,1.2-1.4,2.2-2.6,2.9c-1.3,0.8-2.8,1.1-4.3,1.1c-1.1,0-2.3-0.2-3.3-0.7c-1-0.4-1.8-1-2.5-1.8
		c-0.7-0.7-1.3-1.6-1.6-2.6C513.6,330.8,513.4,329.8,513.4,328.7z"/>
	<path class="st0" d="M531,318.4v-3.6h3.3v3.6L531,318.4z M531,336.5V321h3.3v15.5H531z"/>
	<path class="st0" d="M542.3,336.8c-0.7,0-1.4-0.1-2.1-0.4c-0.6-0.2-1.2-0.6-1.7-1c-0.5-0.4-0.8-1-1.1-1.5c-0.3-0.6-0.4-1.3-0.4-1.9
		c0-0.7,0.2-1.4,0.5-2c0.3-0.6,0.8-1.1,1.4-1.5c0.6-0.5,1.3-0.8,2.1-1c0.9-0.2,1.8-0.4,2.7-0.4c0.7,0,1.5,0.1,2.2,0.2
		c0.7,0.1,1.3,0.3,1.9,0.5v-1.1c0.1-1-0.3-2-1-2.7c-0.8-0.7-1.8-1-2.8-1c-0.8,0-1.7,0.2-2.5,0.5c-0.9,0.3-1.7,0.8-2.5,1.3l-1-2.1
		c1.8-1.3,4-2,6.2-2c1.8-0.1,3.6,0.5,5,1.6c1.2,1.2,1.9,2.9,1.8,4.7v5.6c0,0.7,0.3,1,0.9,1.1v2.8c-0.3,0.1-0.5,0.1-0.8,0.1
		c-0.2,0-0.4,0-0.7,0c-0.5,0-1.1-0.1-1.5-0.5c-0.3-0.3-0.6-0.7-0.6-1.2l-0.1-1c-0.7,0.9-1.6,1.6-2.6,2.1
		C544.6,336.5,543.5,336.8,542.3,336.8z M543.2,334.4c0.8,0,1.5-0.1,2.2-0.4c0.6-0.2,1.2-0.7,1.6-1.2c0.4-0.3,0.6-0.7,0.6-1.1v-2
		c-0.6-0.2-1.2-0.4-1.8-0.5c-0.6-0.1-1.2-0.2-1.8-0.2c-1,0-2,0.2-2.9,0.8c-0.7,0.4-1.1,1.2-1.1,2c0,0.7,0.3,1.5,0.9,1.9
		C541.6,334.1,542.4,334.4,543.2,334.4L543.2,334.4z"/>
	<path class="st0" d="M554.9,318.4v-3.6h3.3v3.6L554.9,318.4z M554.9,336.5V321h3.3v15.5H554.9z"/>
	<path class="st0" d="M567.8,336.8c-1.3,0-2.5-0.2-3.7-0.6c-1.2-0.4-2.3-1-3.2-1.7l1.3-2.1c0.8,0.6,1.8,1.1,2.8,1.5
		c0.9,0.3,1.8,0.5,2.8,0.5c0.8,0,1.6-0.2,2.3-0.6c0.5-0.3,0.9-1,0.8-1.6c0-0.6-0.4-1.2-1-1.4c-1-0.4-2-0.7-3-1
		c-1-0.3-1.8-0.5-2.5-0.7c-0.6-0.2-1.2-0.5-1.7-0.8c-0.4-0.3-0.7-0.7-1-1.1c-0.2-0.5-0.3-1-0.3-1.5c0-0.7,0.1-1.4,0.5-2.1
		c0.3-0.6,0.7-1.1,1.3-1.6c0.6-0.4,1.2-0.8,1.9-1c0.8-0.2,1.6-0.3,2.4-0.3c1.1,0,2.2,0.2,3.3,0.5c1,0.3,1.9,0.9,2.7,1.5l-1.4,2
		c-1.3-1.1-2.9-1.7-4.6-1.7c-0.7,0-1.5,0.2-2.1,0.5c-0.6,0.3-0.9,1-0.8,1.6c0,0.3,0.1,0.6,0.2,0.8c0.1,0.2,0.3,0.4,0.6,0.6
		c0.3,0.2,0.7,0.3,1,0.4c0.4,0.1,1,0.3,1.6,0.4c1,0.3,2,0.5,2.7,0.8c0.7,0.2,1.3,0.5,1.9,0.9c0.5,0.3,0.8,0.7,1.1,1.2
		c0.3,0.5,0.4,1.1,0.4,1.7c0.1,1.4-0.6,2.7-1.7,3.5C571,336.4,569.4,336.9,567.8,336.8z"/>
	<path class="st0" d="M135.7,133.9c-1.2,0.1-2.3-0.1-3.4-0.6c-1-1.4-1.6-3.2-1.6-5c-0.2-2.3-0.2-10.3-7.1-10.9
		c-6.9-0.7-10.9,3.8-17,7.4c-6.1,3.6-18.8,10.7-26.6,12.6c-6.2,1.5,3.8,1.7,9.1,1.4c3.3-1.8,23.3-12.5,27-14.2
		c0,0-17.7,10.3-26.8,15.7c-1.2,1-2.3,2-1.8,2.5c0.7,0.7,6.2,1.2,10.7,0.6c2.8-1.4,13.3-6.6,18.8-10.1c-5.6,3.8-11.4,7.3-17.4,10.6
		c-1.7,1.1-3.6,2.7-2.9,3.6c0.9,1.3,7,0.7,10.6-0.6c2.5-1.8,8.7-6.2,10.5-7.7l0.2-0.2c-0.1,0.1-0.1,0.1-0.2,0.2
		c-1.1,1-5.7,5.2-9.6,8.2c-1,1.3-1.9,3-1,3.8c1.4,1.3,6.2-0.8,9.3-2.7c1.8-1.6,3.4-3.4,4.9-5.3c-1.3,2.1-2.8,4-4.5,5.8
		c-0.9,1.5-2.2,4.1-1.3,5c1.1,1.2,4.7-0.2,6.9-1.9c1.1-1.4,2-2.9,2.7-4.4c-0.5,1.7-1.2,3.4-2.2,4.9c-0.2,1-0.3,2.2,0.8,2.7
		c1.6,0.8,3.5-0.3,5.1-2.2c0.6-1,1.2-2.1,1.7-3.2c0,0-0.7,2.1-1.4,3.8c-0.1,0.7,0,1.5,0.6,1.9c0.9,0.5,4.1-0.8,6.1-4.9L135.7,133.9z
		"/>
	<path class="st0" d="M136,135.3c0,0-0.5,0-0.6,0c-0.7,0-1.4-0.1-2.1-0.2c-0.2,0-0.4-0.1-0.7-0.1c-0.5-0.1-0.9-0.4-1.1-0.7
		c-1-1.5-1.5-3.2-1.5-5c0-0.1,0-0.3,0-0.4c-0.1-2.6-0.5-9.4-6.7-10.1c-0.5,0-0.9-0.1-1.4-0.1c-0.5,0-1,0-1.5,0.1
		c-3.3,0.8-6.5,2.2-9.3,4.3c-0.2,0.1-0.4,0.2-0.5,0.3c-0.5,0.3-1,0.6-1.4,0.8c-0.7,0.4-1.5,0.9-2.2,1.3c-1.3,0.7-2.3,1.2-2.3,1.2
		c0,0,1.1-0.5,2.3-1.1c0.7-0.4,1.5-0.8,2.2-1.2c1.6-0.9,3.2-1.9,4.9-2.8c1.5-0.9,3.1-1.6,4.7-2c1.5-0.4,3-0.5,4.5-0.3
		c5.8,0.6,6.1,6.9,6.3,9.6c0,0.2,0,0.3,0,0.4c0,1.7,0.5,3.4,1.2,4.9c0.8,1.4,1.6,1.4,3,1.6c0.2,0,2.3,0.1,2.3,0.1
		C136.1,135.7,136.1,135.5,136,135.3z"/>
	<path class="st0" d="M196.7,137.4c-7.8-1.9-20.6-9-26.6-12.6c-6.1-3.6-10.1-8.1-17-7.4c-6.9,0.7-7,8.7-7.1,10.9
		c0,1.8-0.5,3.5-1.6,5c-1.1,0.5-2.3,0.7-3.5,0.6l-0.3,16.2c2,4.4,5.4,5.8,6.3,5.3c0.7-0.3,0.7-1.1,0.6-1.9c-0.7-1.6-1.4-3.8-1.4-3.8
		c0.5,1.1,1.1,2.2,1.7,3.2c1.6,1.9,3.4,3,5.1,2.2c1-0.5,1-1.7,0.8-2.7c-1-1.5-1.7-3.2-2.2-4.9c0.8,1.6,1.7,3,2.7,4.4
		c2.2,1.7,5.7,3.1,6.9,1.9c0.9-0.9-0.4-3.4-1.3-5c-1.7-1.8-3.2-3.7-4.5-5.8c1.5,1.9,3.1,3.7,4.9,5.3c3,1.9,7.8,3.9,9.3,2.7
		c0.9-0.8,0-2.5-1-3.8c-3.9-3-8.6-7.2-9.6-8.2c-0.1-0.1-0.2-0.2-0.2-0.2l0.2,0.2c1.7,1.6,8,6,10.5,7.7c3.6,1.3,9.7,1.8,10.6,0.6
		c0.7-0.9-1.2-2.4-2.9-3.6c-6-3.2-11.8-6.7-17.4-10.6c5.5,3.5,15.9,8.7,18.8,10.1c4.5,0.6,10,0.2,10.7-0.6c0.4-0.5-0.6-1.6-1.8-2.5
		c-9.1-5.4-26.8-15.7-26.8-15.7c3.8,1.7,23.7,12.4,27,14.2C192.9,139.1,202.9,138.9,196.7,137.4z"/>
	<path class="st0" d="M140.7,135.4c0,0,0.5,0,0.6,0c0.7,0,1.4-0.1,2.1-0.2c0.2,0,0.4-0.1,0.7-0.1c0.5-0.1,0.9-0.4,1.1-0.7
		c1-1.5,1.5-3.2,1.5-5c0-0.1,0-0.3,0-0.4c0.1-2.6,0.5-9.4,6.7-10.1c0.5,0,0.9-0.1,1.4-0.1c0.5,0,1,0,1.5,0.1
		c3.3,0.8,6.5,2.2,9.3,4.3c0.2,0.1,0.4,0.2,0.5,0.3c0.5,0.3,1,0.6,1.4,0.8c0.7,0.4,1.5,0.9,2.2,1.3c1.3,0.7,2.3,1.2,2.3,1.2
		c0,0-1.1-0.5-2.3-1.1c-0.7-0.4-1.5-0.8-2.2-1.2c-1.6-0.9-3.2-1.9-4.9-2.8c-1.5-0.9-3.1-1.6-4.7-2c-1-0.3-2.1-0.4-3.2-0.4
		c-0.4,0-0.9,0-1.3,0.1c-5.8,0.6-6.1,6.9-6.3,9.6c0,0.2,0,0.3,0,0.4c0,1.7-0.5,3.4-1.2,4.9c-0.8,1.4-1.6,1.4-3,1.6
		c-0.2,0-2.3,0.1-2.3,0.1C140.7,135.7,140.7,135.6,140.7,135.4z"/>
	<path class="st0" d="M135.2,126.7c-0.2,0.2-0.3,0.5-0.3,0.8c0,0.5,0.3,0.9,0.6,0.9h2.3C136.7,128.2,135.8,127.6,135.2,126.7z"/>
	<path class="st0" d="M141.5,126.7c-0.6,0.9-1.6,1.5-2.6,1.7h2.3c0.3,0,0.6-0.4,0.6-0.9C141.8,127.2,141.7,126.9,141.5,126.7z"/>
	<path class="st0" d="M141.9,123.8c-0.3,2-2.1,3.4-4.1,3.1c-2-0.3-3.4-2.1-3.1-4.1c0.3-1.8,1.8-3.1,3.6-3.1
		C140.5,119.8,142.1,121.6,141.9,123.8z"/>
	<path class="st0" d="M136.9,189.9c0.6-0.5,1.3-1.1,2-1.6c0.2-0.1,0.3-0.3,0.5-0.4l0.2-9.1c-0.8-0.4-1.7-0.8-2.8-1.2L136.9,189.9z"
		/>
	<path class="st0" d="M138.9,214.1c-0.5-0.6-1.1-1.2-1.6-1.8l0.2,13.6c0.4-0.7,0.8-1.3,1.2-1.9L138.9,214.1z"/>
	<path class="st0" d="M139,208.5l0.3-14.5c-0.9,0.7-1.6,1.3-2.3,1.8l0.1,10.6C137.8,207.1,138.4,207.8,139,208.5z"/>
	<path class="st0" d="M138.2,172.2c0.5,0.3,1,0.5,1.5,0.8l0.9-45.3c-1.3,1.1-3.2,1.1-4.5,0l0.6,43.7
		C137.2,171.6,137.7,171.9,138.2,172.2z"/>
	<path class="st0" d="M138.5,228.8c-0.4,0.6-0.7,1.2-1,1.8l0.1,9.7l0.4,1.3l0.4-1.3l0.2-11.7C138.6,228.7,138.5,228.7,138.5,228.8z"
		/>
	<path class="st0" d="M137.4,225.9c0.1-0.2,0.2-0.4,0.3-0.5c-0.3-0.5-0.7-1-1-1.5c-0.4-0.5-0.8-1.1-1.1-1.6
		c-1.3-1.6-1.6-3.8-0.7-5.7c0.7-1.4,1.6-2.6,2.7-3.7c-0.6-0.6-1.1-1.2-1.7-1.8c-0.5,0.6-1.1,1.3-1.5,1.9c-3.3,4.1-2.4,6.2-1.7,8.2
		c1.1,2.1,2.6,4,4.2,5.7C137.1,226.4,137.3,226.1,137.4,225.9z"/>
	<path class="st0" d="M134.9,191.6c0.8-0.7,1.7-1.5,2.7-2.3c-1.8-1.5-3.7-3-5.2-4.3c-2.6-2.3,0.8-5,2.6-6.1c0.7-0.4,1.5-0.8,2.2-1.1
		c-0.6-0.3-1.3-0.6-2-0.9c-0.8-0.3-1.6-0.7-2.4-1c-0.4,0.3-0.9,0.5-1.3,0.8c-2.4,1.6-5.1,4.3-3.9,7.8c1.2,2.5,3.1,4.5,5.5,5.8
		C133.8,190.8,134.3,191.2,134.9,191.6z"/>
	<path class="st0" d="M139.5,228.3c-0.1-0.2-0.2-0.4-0.3-0.5c-0.2,0.3-0.5,0.6-0.7,1c0.6,0.9,1,1.8,1.2,2.8c0.1,1.3-0.1,2.6-0.6,3.8
		c0.1-0.1,0.2-0.2,0.3-0.3c0.1-0.1,0.2-0.3,0.2-0.4c0.7-1.3,0.9-2.9,0.5-4.3C140,229.7,139.8,229,139.5,228.3z"/>
	<path class="st0" d="M153.1,165.3c-0.2-2-1.1-3.8-2.5-5.2c-0.5-0.3-0.2-0.8-0.9-1.8c-1.3-1.4-3.2-2.1-5.1-2c-2.4,0-3.1,2.6-2.9,2.7
		c0.1,0.1,0.2,0.2,0.3,0.4c-0.6-0.1-0.4,0.7,0.8,1.8c1.2,1,3.4,2.3,4,2c0.5-0.1,1,0.1,1.2,0.6c0.1,0.2,0.2,0.4,0.3,0.7
		c0,0.2,0,0.4,0,0.6c-0.2,0.9-0.8,1.7-1.6,2.2c-0.9,0.7-1.8,1.4-2.7,2.1c-1.6,1.2-3.3,2.2-5.1,3.1c1.5,0.8,3.1,1.7,4.6,2.6
		c1-0.4,2-0.9,3-1.3C150.7,171.8,153.3,168.1,153.1,165.3z M144.7,158.6c-0.4,0-0.7-0.2-0.7-0.4s0.3-0.4,0.7-0.4s0.7,0.2,0.7,0.4
		C145.4,158.4,145.1,158.6,144.7,158.6L144.7,158.6z"/>
	<path class="st0" d="M141.4,192.5L141.4,192.5c-0.4,0.1-0.7,0.4-1,0.6c-0.6,0.5-1.2,0.9-1.8,1.4c2.8,2.3,4.3,4,4.4,6.3
		c0.1,1.8-2.1,4.5-4.5,7.3c0.2,0.3,0.4,0.5,0.7,0.8c0.4,0.4,0.7,0.8,1.1,1.2c0.4-0.4,0.7-0.7,1-1c2.4-2.2,4.1-5.1,4.9-8.2
		C146.4,197.9,143.9,194.7,141.4,192.5z"/>
	<path class="st0" d="M144.7,176.7c-4.4-2.9-10.2-5.4-12.4-7.3c-0.9-0.7-1.8-1.4-2.7-2.1c-0.8-0.5-1.3-1.3-1.6-2.2
		c0-0.2,0-0.4,0-0.6c0-0.2,0.1-0.5,0.3-0.7c0.2-0.4,0.7-0.7,1.2-0.6c0.6,0.2,2.8-1,4-2c1.2-1,1.4-1.9,0.8-1.8c0-0.2,0.1-0.3,0.3-0.4
		c0.2-0.1-0.5-2.6-2.9-2.7c-1.9-0.1-3.8,0.6-5.1,2c-0.7,1-0.4,1.4-0.9,1.8c-1.4,1.4-2.3,3.2-2.5,5.2c-0.3,2.8,2.4,6.5,6.6,8.5
		c4.2,2,9.5,4,11.4,5.1s5.2,3.9,2.6,6.1c-2.6,2.3-6.5,5.3-9,7.5c-2.5,2.2-5,5.3-4.8,8.3c0.8,3.2,2.5,6,4.9,8.2
		c2.4,2.2,4.6,4.8,6.3,7.5c0.9,1.9,0.6,4.1-0.7,5.7c-0.1,0.2-0.3,0.4-0.4,0.6c-0.8,1.1-1.6,2.2-2.3,3.4c-0.8,1.4-1.5,2.8-1.9,4.4
		c-0.2,0.8-0.4,1.7-0.4,2.6c0,0.5,0,0.9,0,1.4c0,0.9,0.3,1.8,0.6,2.6c0.1,0.3,0.3,0.6,0.5,0.9c0.1-0.1-0.5-2-0.6-2.9
		c-0.1-2.4,0.5-4.8,1.9-6.8c1.7-2.6,4.8-5.4,5.5-7.4c0.7-2,1.6-4-1.7-8.2c-3.3-4.1-8.7-9.2-8.6-12.1c0.1-2.9,2.5-4.9,6.9-8.2
		c1.8-1.3,3.6-2.6,5.4-4c2.1-1.4,3.4-3.7,3.4-6.2C148.5,179.9,146.9,177.8,144.7,176.7z M131.6,157.7c0.4,0,0.7,0.2,0.7,0.4
		c0,0.2-0.3,0.4-0.7,0.4s-0.7-0.2-0.7-0.4S131.2,157.7,131.6,157.7L131.6,157.7z"/>
</g>
</svg>
